<svg xmlns="http://www.w3.org/2000/svg" width="250" height="250" viewBox="0 0 66.146 66.146"><g transform="translate(-284.199 -143.226)"><path d="M307.68 185.954v23.418h28.097c1.452 0 2.851-.215 4.173-.608z" fill="#e4e1da" paint-order="markers stroke fill"/><path d="M284.199 169.357v25.448a14.534 14.534 0 009.657 13.722v-32.344z" fill="#ffccd5" paint-order="markers stroke fill"/><path d="M293.856 144.071a14.545 14.545 0 00-8.817 8.825l8.817 6.232z" fill="#e4e1da" paint-order="markers stroke fill"/><path d="M307.68 143.226V168.9l42.139 29.786c.34-1.235.525-2.535.525-3.881v-14.597c-7.944-.01-13.93-2.23-18.178-4.653a37.311 37.311 0 01-5.119-3.536c-1.294-1.055-2.233-1.926-2.647-2.228-2.626-1.92-5.227-5.7-7.275-10.402-2.048-4.702-3.494-10.321-3.494-15.882 0-.094.004-.187.005-.28z" fill="#9ddf7b" paint-order="markers stroke fill"/><path d="M285.41 151.959a14.576 14.576 0 00-1.211 5.835v12.762l54.5 38.525a14.53 14.53 0 0011.366-11.42z" fill="#fcab1a" paint-order="markers stroke fill"/><path d="M285.04 152.896a14.615 14.615 0 00-.841 4.898v11.563l55.753 39.409a14.534 14.534 0 009.869-10.078z" fill="#ffd634" paint-order="markers stroke fill"/><path d="M298.766 143.226c-2.138 0-4.163.46-5.988 1.28v63.586c1.825.82 3.85 1.28 5.988 1.28h9.993v-66.146z" opacity=".125" paint-order="markers stroke fill"/><path d="M298.766 143.226c-1.725 0-3.377.3-4.91.845v64.457c1.533.545 3.185.844 4.91.844h8.915v-66.146z" fill="#fff" paint-order="markers stroke fill"/><path style="line-height:normal;font-variant-ligatures:normal;font-variant-position:normal;font-variant-caps:normal;font-variant-numeric:normal;font-variant-alternates:normal;font-feature-settings:normal;text-indent:0;text-align:start;text-decoration-line:none;text-decoration-style:solid;text-decoration-color:#000;text-transform:none;text-orientation:mixed;white-space:normal;shape-padding:0;isolation:auto;mix-blend-mode:normal;solid-color:#000;solid-opacity:1" d="M313.636 143.226c-.001.094-.005.187-.005.281 0 5.56 1.446 11.18 3.494 15.882 2.048 4.701 4.649 8.481 7.275 10.402.413.302 1.352 1.173 2.647 2.228a37.312 37.312 0 005.119 3.536c4.248 2.423 10.234 4.643 18.178 4.653v-2.03c-7.568-.01-13.171-2.102-17.172-4.385a35.283 35.283 0 01-4.844-3.346c-1.237-1.009-2.065-1.81-2.729-2.295-2.088-1.527-4.664-5.097-6.615-9.574-1.95-4.477-3.324-9.865-3.324-15.07 0-.095.003-.188.005-.282z" color="#000" font-weight="400" font-family="sans-serif" overflow="visible" fill="#90c36c" paint-order="markers stroke fill"/><path d="M314.65 143.226c0 .094-.005.187-.005.281 0 10.766 5.64 22.016 10.354 25.465 2.152 1.573 9.815 10.201 25.345 10.221v-21.4c0-8.07-6.497-14.567-14.567-14.567z" fill="#f4efeb" paint-order="markers stroke fill"/><path style="line-height:normal;font-variant-ligatures:normal;font-variant-position:normal;font-variant-caps:normal;font-variant-numeric:normal;font-variant-alternates:normal;font-feature-settings:normal;text-indent:0;text-align:start;text-decoration-line:none;text-decoration-style:solid;text-decoration-color:#000;text-transform:none;text-orientation:mixed;white-space:normal;shape-padding:0;isolation:auto;mix-blend-mode:normal;solid-color:#000;solid-opacity:1" d="M328.627 143.226c.178 6.886 1.903 11.656 6.14 15.631 2.032 1.906 4.004 3.557 6.897 4.674 2.228.86 4.964 1.4 8.68 1.603V162.8c-3.477-.2-5.93-.705-7.842-1.443-2.514-.971-4.168-2.347-6.143-4.2-3.801-3.566-5.25-7.448-5.406-13.932z" color="#000" font-weight="400" font-family="sans-serif" overflow="visible" fill="#90c36c" paint-order="markers stroke fill"/><path d="M329.79 143.226c.167 6.685 1.754 11.01 5.773 14.781 3.536 3.317 6.483 5.495 14.781 5.96v-6.173c0-8.07-6.497-14.568-14.567-14.568z" fill="#9ddf7b" paint-order="markers stroke fill"/><path d="M298.766 143.226c-.68 0-1.35.05-2.005.14v28.3a11.787 11.787 0 014.088-.74 11.787 11.787 0 013.926.688v-28.388z" fill="#3394e3" paint-order="markers stroke fill"/><path d="M333.988 185.168a1.049 1.049 0 00-.53.164 10.336 10.336 0 01-5.552 1.633c-1.427-.001-2.84-.301-4.152-.88-.51-.224-1.118 0-1.361.501a12.923 12.923 0 00-1.305 5.62v.003c0 7.122 5.795 12.918 12.918 12.918 7.123 0 12.92-5.796 12.92-12.92a.523.523 0 000-.002 12.914 12.914 0 00-1.303-5.63 1.055 1.055 0 00-1.365-.499c-1.31.582-2.72.884-4.147.889a10.344 10.344 0 01-5.527-1.633c-.088-.056-.197-.054-.297-.082a.523.523 0 00-.299-.082z" style="line-height:normal;font-variant-ligatures:normal;font-variant-position:normal;font-variant-caps:normal;font-variant-numeric:normal;font-variant-alternates:normal;font-feature-settings:normal;text-indent:0;text-align:start;text-decoration-line:none;text-decoration-style:solid;text-decoration-color:#000;text-transform:none;text-orientation:mixed;white-space:normal;shape-padding:0;isolation:auto;mix-blend-mode:normal;solid-color:#000;solid-opacity:1" color="#000" font-weight="400" font-family="sans-serif" overflow="visible" fill="#0078d9" paint-order="markers stroke fill"/><path d="M334.004 185.69a.523.523 0 00-.265.083 10.862 10.862 0 01-5.834 1.714 10.83 10.83 0 01-4.362-.922.523.523 0 00-.68.25 12.396 12.396 0 00-1.253 5.39.523.523 0 000 .003c0 6.84 5.556 12.396 12.396 12.396 6.84 0 12.397-5.556 12.397-12.396a.523.523 0 000-.001 12.39 12.39 0 00-1.25-5.403.523.523 0 00-.683-.249 10.832 10.832 0 01-4.361.933 10.863 10.863 0 01-5.806-1.714.523.523 0 00-.299-.083z" style="line-height:normal;font-variant-ligatures:normal;font-variant-position:normal;font-variant-caps:normal;font-variant-numeric:normal;font-variant-alternates:normal;font-feature-settings:normal;text-indent:0;text-align:start;text-decoration-line:none;text-decoration-style:solid;text-decoration-color:#000;text-transform:none;text-orientation:mixed;white-space:normal;shape-padding:0;isolation:auto;mix-blend-mode:normal;solid-color:#000;solid-opacity:1" color="#000" font-weight="400" font-family="sans-serif" overflow="visible" fill="#fff" paint-order="markers stroke fill"/><path d="M334.02 186.214a11.59 11.873 0 01-6.115 1.796 11.59 11.873 0 01-4.572-.966 11.873 11.873 0 00-1.038 3.278h23.416a11.873 11.873 0 00-1.029-3.29 11.59 11.873 0 01-4.573.978 11.59 11.873 0 01-6.088-1.796z" fill="#de1c25" paint-order="markers stroke fill"/><path d="M322.198 191.149a11.873 11.873 0 00-.065 1.058 11.873 11.873 0 0011.873 11.874 11.873 11.873 0 0011.874-11.874 11.873 11.873 0 00-.055-1.058z" fill="#0078d9" paint-order="markers stroke fill"/><g style="line-height:1.25" aria-label="280" font-weight="700" font-size="40" font-family="Arial" letter-spacing="0" word-spacing="0" fill="#fff"><path style="-inkscape-font-specification:'Arial Bold'" d="M330.588 198.028v1.159h-4.89q.079-.657.476-1.243.397-.59 1.57-1.563.942-.785 1.156-1.065.288-.386.288-.764 0-.417-.253-.639-.249-.226-.69-.226-.437 0-.696.235-.258.235-.297.781l-1.39-.124q.123-1.03.779-1.478.655-.448 1.638-.448 1.078 0 1.693.519.616.52.616 1.292 0 .44-.179.839-.173.395-.556.83-.253.288-.913.83-.66.541-.84.719-.173.178-.282.346zM332.733 195.676q-.541-.205-.79-.56-.243-.36-.243-.785 0-.729.566-1.203.571-.475 1.619-.475 1.038 0 1.609.475.576.474.576 1.203 0 .452-.263.807-.264.351-.74.538.605.217.918.634.318.418.318.964 0 .9-.645 1.465-.64.563-1.708.563-.993 0-1.654-.466-.78-.55-.78-1.51 0-.527.294-.967.293-.444.923-.683zm.288-1.257q0 .373.233.582.239.208.631.208.397 0 .636-.208.238-.213.238-.586 0-.35-.238-.56-.234-.213-.621-.213-.402 0-.64.214-.239.213-.239.563zm-.129 2.788q0 .515.293.803.298.289.74.289.432 0 .715-.275.283-.28.283-.804 0-.457-.288-.732-.288-.28-.73-.28-.512 0-.765.315-.248.316-.248.684zM339.555 192.653q1.058 0 1.654.674.71.8.71 2.65 0 1.847-.715 2.655-.591.666-1.649.666-1.062 0-1.713-.728-.65-.733-.65-2.606 0-1.838.715-2.646.59-.665 1.648-.665zm0 1.034q-.253 0-.452.146-.198.142-.307.515-.144.484-.144 1.63 0 1.145.129 1.575.129.426.322.568.199.143.452.143t.452-.143q.199-.146.308-.519.144-.48.144-1.625t-.13-1.571q-.128-.43-.327-.573-.194-.146-.447-.146z"/></g><circle cx="300.85" cy="182.712" fill="#0179da" paint-order="markers stroke fill" r="11.787"/><path d="M300.798 175.4c-.008 0-.016.003-.024.004a.595.595 0 00-.063.01c-.03.006-.06.012-.09.021-.006.002-.013.002-.019.005l-.03.014a.77.77 0 00-.26.17.752.752 0 00-.165.254l-.014.03-1.074 3.11-.006.012-.804 2.326-.544 1.572v.001l-2.083 6.03a.754.754 0 00.595 1.06l.003.001a.836.836 0 00.132.005l.039-.003a.68.68 0 00.225-.058.771.771 0 00.076-.039l.042-.025a.746.746 0 00.095-.075l.01-.008.043-.04v-.003l3.968-3.818 3.967 3.818c.004.004.008.007.011.012l.033.03.01.009a.753.753 0 00.437.197c.013 0 .026.003.04.003a.75.75 0 00.132-.005h.003a.752.752 0 00.595-1.062l-3.431-9.928c0-.003-.003-.006-.004-.01l-1.076-3.111c-.004-.013-.011-.023-.016-.035a.774.774 0 00-.119-.2.745.745 0 00-.304-.22l-.03-.014-.02-.005a.782.782 0 00-.089-.021c-.021-.004-.042-.008-.063-.01a.943.943 0 00-.075-.003c-.017 0-.035-.003-.051-.002z" fill="#fff" paint-order="markers stroke fill"/><path d="M349.819 198.686l-.054.192.056-.19zM349.765 198.878l-.057.198.057-.198zM349.708 199.076zM298.062 143.244c-.077.004-.153.01-.23.015l.23-.015zM297.382 143.293zM296.707 143.373zM296.04 143.483zM295.403 143.618c-.121.028-.242.056-.362.087.12-.031.24-.059.362-.087zM285.033 152.915zM284.842 153.494zM284.67 154.102zM284.525 154.715zM284.408 155.322zM284.318 155.926zM284.252 156.546zM284.212 157.176zM339.95 208.764l.003.002a14.413 14.413 0 00-.002-.001zM344.809 206.246zM344.095 206.776zM343.667 207.06zM342.927 207.507zM342.51 207.732zM295.041 208.893c.12.031.24.06.362.087-.121-.028-.242-.056-.362-.087zM295.703 209.05zM296.381 209.176zM297.07 209.272c.104.012.208.024.312.034a15.85 15.85 0 01-.311-.034zM297.832 209.34l.23.014c-.077-.004-.153-.01-.23-.015z" opacity=".24" paint-order="markers stroke fill"/></g></svg>