<svg width="30" height="30" viewBox="0 0 40 40" fill="none" xmlns="http://www.w3.org/2000/svg"><g clip-path="url(#clip0_306_174)"><path d="M28.748 40c-1.291 0-2.572-.228-3.824-.683A40.77 40.77 0 0110.12 29.88 40.768 40.768 0 01.683 15.076 11.064 11.064 0 01.12 9.636c.252-1.72.918-3.39 1.926-4.828A11.371 11.371 0 015.95 1.332 11.138 11.138 0 0111.283 0c.589 0 1.098.412 1.222.988l1.962 9.156a1.25 1.25 0 01-.339 1.146l-3.352 3.352a32.903 32.903 0 0014.582 14.582l3.352-3.353c.3-.3.732-.427 1.146-.338l9.156 1.962c.576.124.988.633.988 1.222 0 1.895-.449 3.69-1.333 5.333a11.37 11.37 0 01-3.476 3.905 11.323 11.323 0 01-4.829 1.926c-.538.08-1.077.119-1.614.119zM10.284 2.555c-2.5.276-4.718 1.586-6.191 3.688-1.657 2.365-2.043 5.273-1.06 7.979a37.913 37.913 0 0022.745 22.745c2.706.983 5.614.597 7.979-1.06 2.102-1.473 3.413-3.691 3.688-6.19l-7.448-1.597-3.5 3.501a1.25 1.25 0 01-1.416.248 35.394 35.394 0 01-16.95-16.95 1.25 1.25 0 01.248-1.415l3.5-3.501-1.595-7.448z" fill="#000"/></g><defs><clipPath id="clip0_306_174"><path fill="#fff" d="M0 0h40v40H0z"/></clipPath></defs></svg>