<svg width="43" height="44" fill="none" xmlns="http://www.w3.org/2000/svg"><g clip-path="url(#clip0_94_3786)"><path d="M15.229 26.583l-8.063 8.25 2.688 2.75 6.27-6.416h3.584l-4.479-4.584zm11.646-24.75c-1.971 0-3.584 1.65-3.584 3.667s1.613 3.667 3.584 3.667c1.97 0 3.583-1.65 3.583-3.667s-1.612-3.667-3.583-3.667zm10.75 36.685L32.25 44l-5.357-5.518V35.75L14.172 22.752a9.92 9.92 0 01-1.63.128v-3.96c2.974.055 6.467-1.595 8.367-3.74l2.508-2.842c.34-.385.77-.696 1.236-.916a3.914 3.914 0 011.72-.422h.054c2.222.018 4.031 1.87 4.031 4.143v10.542a5.56 5.56 0 01-1.648 3.96l-6.414-6.563V18.92a17.31 17.31 0 01-4.103 2.548L29.563 33h2.687l5.375 5.518z" fill="#000" fill-opacity=".87"/></g><defs><clipPath id="clip0_94_3786"><path fill="#fff" d="M0 0h43v44H0z"/></clipPath></defs></svg>