<svg width="24" height="24" fill="none" xmlns="http://www.w3.org/2000/svg"><path d="M12 22.75C6.07 22.75 1.25 17.93 1.25 12S6.07 1.25 12 1.25 22.75 6.07 22.75 12 17.93 22.75 12 22.75zm0-20C6.9 2.75 2.75 6.9 2.75 12S6.9 21.25 12 21.25s9.25-4.15 9.25-9.25S17.1 2.75 12 2.75z" fill="#292D32"/><path d="M13.25 13.5A3.754 3.754 0 0017 9.75 3.754 3.754 0 0013.25 6H9.5a.833.833 0 00-.833.833v5h-.834a.833.833 0 100 1.667h.834v.833h-.834a.833.833 0 000 1.667h.834v.833a.833.833 0 001.666 0V16H14.5a.833.833 0 000-1.667h-4.167V13.5h2.917zm-2.917-5.833h2.917c1.148 0 2.083.935 2.083 2.083a2.086 2.086 0 01-2.083 2.083h-2.917V7.667z" fill="#292D32"/></svg>